<svg id="visual" viewBox="0 0 1600 400" width="1600" height="400" xmlns="http://www.w3.org/2000/svg" xmlns:xlink="http://www.w3.org/1999/xlink" version="1.1"><rect x="0" y="0" width="1600" height="400" fill="#2e1206"></rect><path d="M0 263L38.2 262.5C76.3 262 152.7 261 228.8 258.8C305 256.7 381 253.3 457.2 251.3C533.3 249.3 609.7 248.7 685.8 251.8C762 255 838 262 914.2 268.2C990.3 274.3 1066.7 279.7 1142.8 278C1219 276.3 1295 267.7 1371.2 261.7C1447.3 255.7 1523.7 252.3 1561.8 250.7L1600 249L1600 401L1561.8 401C1523.7 401 1447.3 401 1371.2 401C1295 401 1219 401 1142.8 401C1066.7 401 990.3 401 914.2 401C838 401 762 401 685.8 401C609.7 401 533.3 401 457.2 401C381 401 305 401 228.8 401C152.7 401 76.3 401 38.2 401L0 401Z" fill="#ecdbbb"></path><path d="M0 270L38.2 269.5C76.3 269 152.7 268 228.8 272.7C305 277.3 381 287.7 457.2 296.2C533.3 304.7 609.7 311.3 685.8 307.7C762 304 838 290 914.2 285.7C990.3 281.3 1066.7 286.7 1142.8 290.5C1219 294.3 1295 296.7 1371.2 293.3C1447.3 290 1523.7 281 1561.8 276.5L1600 272L1600 401L1561.8 401C1523.7 401 1447.3 401 1371.2 401C1295 401 1219 401 1142.8 401C1066.7 401 990.3 401 914.2 401C838 401 762 401 685.8 401C609.7 401 533.3 401 457.2 401C381 401 305 401 228.8 401C152.7 401 76.3 401 38.2 401L0 401Z" fill="#f0cf94"></path><path d="M0 336L38.2 331.2C76.3 326.3 152.7 316.7 228.8 311.3C305 306 381 305 457.2 307.3C533.3 309.7 609.7 315.3 685.8 318C762 320.7 838 320.3 914.2 317.2C990.3 314 1066.7 308 1142.8 304C1219 300 1295 298 1371.2 298C1447.3 298 1523.7 300 1561.8 301L1600 302L1600 401L1561.8 401C1523.7 401 1447.3 401 1371.2 401C1295 401 1219 401 1142.8 401C1066.7 401 990.3 401 914.2 401C838 401 762 401 685.8 401C609.7 401 533.3 401 457.2 401C381 401 305 401 228.8 401C152.7 401 76.3 401 38.2 401L0 401Z" fill="#f5c26d"></path><path d="M0 357L38.2 356C76.3 355 152.7 353 228.8 347.7C305 342.3 381 333.7 457.2 331.3C533.3 329 609.7 333 685.8 334.5C762 336 838 335 914.2 338.2C990.3 341.3 1066.7 348.7 1142.8 349.5C1219 350.3 1295 344.7 1371.2 341.3C1447.3 338 1523.7 337 1561.8 336.5L1600 336L1600 401L1561.8 401C1523.7 401 1447.3 401 1371.2 401C1295 401 1219 401 1142.8 401C1066.7 401 990.3 401 914.2 401C838 401 762 401 685.8 401C609.7 401 533.3 401 457.2 401C381 401 305 401 228.8 401C152.7 401 76.3 401 38.2 401L0 401Z" fill="#fab444"></path><path d="M0 351L38.2 352.8C76.3 354.7 152.7 358.3 228.8 358.7C305 359 381 356 457.2 359C533.3 362 609.7 371 685.8 375.7C762 380.3 838 380.7 914.2 375.8C990.3 371 1066.7 361 1142.8 359.7C1219 358.3 1295 365.7 1371.2 367.8C1447.3 370 1523.7 367 1561.8 365.5L1600 364L1600 401L1561.8 401C1523.7 401 1447.3 401 1371.2 401C1295 401 1219 401 1142.8 401C1066.7 401 990.3 401 914.2 401C838 401 762 401 685.8 401C609.7 401 533.3 401 457.2 401C381 401 305 401 228.8 401C152.7 401 76.3 401 38.2 401L0 401Z" fill="#ffa500"></path></svg>